<?xml version="1.0" encoding="UTF-8"?>
<svg id="Layer_2" data-name="Layer 2" xmlns="http://www.w3.org/2000/svg" viewBox="0 0 38.2 41.4">
  <defs>
    <style>
      .cls-1 {
        fill: #d22229;
      }
    </style>
  </defs>
  <g id="Layer_2-2" data-name="Layer 2">
    <path class="cls-1" d="M5,38.19c.07-1.46.78-2.88,1.31-4.22s1.11-2.75,1.8-4.07c1.43-2.72,3.23-5.19,5.35-7.4,2.26-2.35,4.79-4.4,7.51-6.2s5.75-3.61,8.94-4.71c1.28-.44,2.12-1.71,1.75-3.08-.34-1.24-1.79-2.19-3.08-1.75-7.05,2.44-13.84,7.09-18.95,12.51-2.38,2.53-4.45,5.38-6.04,8.47-.84,1.65-1.51,3.37-2.19,5.09S.09,36.27,0,38.19c-.15,3.22,4.85,3.21,5,0h0Z"/>
    <path class="cls-1" d="M33.76,17.09c-.1-.79.43-1.46.77-2.14.43-.87.77-1.81,1.15-2.71s.69-1.87,1.15-2.74c.42-.78.97-1.47,1.29-2.29.27-.68-.26-1.29-.76-1.67-.79-.61-1.76-.96-2.64-1.43s-1.75-.95-2.59-1.47c-1.42-.88-2.68-2.32-4.4-2.6-.68-.11-1.79-.08-1.83.87-.05,1.21.5,2.33,1.05,3.37s1.07,2.16,1.48,3.34c.45,1.3.69,2.64,1.1,3.94s.91,2.48.87,3.82c-.04,1.57,3.33,2.75,3.57.88.27-2.11.45-4.24.46-6.37.02-1.94.06-3.69-1.38-5.19-.59-.61-1.71-1.03-2.52-.65s-.62,1.3-.09,1.84c.4.42.44.98.44,1.54.01.82,0,1.64-.03,2.45-.05,1.84-.22,3.67-.45,5.49l3.57.88c.03-1.36-.35-2.63-.77-3.9s-.7-2.7-1.13-4.04c-.4-1.26-.89-2.51-1.5-3.69-.46-.87-1.14-1.83-1.1-2.85l-1.83.87c.48.08-.19-.11.1,0,.12.06.11.05,0-.01l.17.11c.29.2.57.41.85.63.62.49,1.26.92,1.93,1.32.86.51,1.74,1,2.62,1.48.69.37,1.56.69,2.14,1.14l-.76-1.67c-.34.86-.92,1.58-1.35,2.4-.48.92-.8,1.94-1.21,2.89-.37.88-.7,1.8-1.14,2.64s-.94,1.66-.82,2.61.87,1.54,1.74,1.75c.56.14,1.94.05,1.83-.87h0Z"/>
    <path class="cls-1" d="M.28,38.86c0,.78.17,1.66.73,2.24l.18.07c.13.03.27.04.41.03.3,0,.61-.05.91-.13.24-.07.48-.15.71-.26s.46-.25.59-.46c.05-.08.11-.15.15-.23l-2.88.64s.02.08.03.11c.06.15.25.18.39.2.26.04.54.02.8-.03s.52-.12.77-.21.62-.24.81-.45c.34-.37.61-.79.71-1.29s.09-1.02.09-1.53c0-.18-.44-.22-.51-.22-.34-.02-.74.04-1.06.14s-.7.21-.99.41c-.16.11-.33.23-.33.45,0,.4,0,.8-.04,1.19l.02-.14c-.06.41-.2.79-.45,1.13l.12-.15c-.06.07-.12.14-.18.21l2.76-.48s-.02-.08-.03-.11c-.07-.18-.36-.21-.51-.22-.29-.01-.58.03-.87.09-.31.07-.63.16-.91.3-.21.11-.48.24-.59.46-.04.08-.1.16-.15.23l2.79-.75s-.07-.08-.11-.12l.09.11c-.42-.55-.54-1.33-.54-2,0-.18-.44-.22-.51-.22-.34-.02-.74.04-1.06.14s-.7.21-.99.41c-.16.11-.33.23-.33.45H.28Z"/>
    <path class="cls-1" d="M3.27,39.1c-.04-.06-.07-.12-.1-.19l.12.25c-.15-.31-.27-.65-.3-1l.02.28c0-.11,0-.23.03-.34l-.08.27s.03-.09.06-.13l-.17.26s.02-.03.04-.05c.19-.21.31-.53.24-.81s-.35-.5-.61-.58c-.35-.11-.75-.12-1.1-.01s-.7.28-.95.56c-.11.12-.2.26-.26.41s-.11.31-.12.47c-.02.25.01.52.07.76.04.17.1.34.17.5.09.22.19.43.31.63.09.12.21.21.35.27.14.09.3.13.47.15.19.03.38.02.57-.03.2-.02.39-.08.57-.17.29-.15.62-.37.74-.69l.08-.27c.02-.19-.02-.37-.14-.52h0Z"/>
  </g>
</svg>