<?xml version="1.0" encoding="UTF-8"?>
<svg id="Layer_2" data-name="Layer 2" xmlns="http://www.w3.org/2000/svg" viewBox="0 0 34.51 40.32">
  <defs>
    <style>
      .cls-1 {
        fill: #d22229;
      }
    </style>
  </defs>
  <g id="Layer_2-2" data-name="Layer 2">
    <path class="cls-1" d="M34.51,39.11c.02-1.78-.55-3.44-1.1-5.1s-1.08-3.24-1.77-4.81c-1.43-3.25-3.38-6.24-5.69-8.93-4.64-5.39-10.83-10.15-17.43-12.86-1.49-.61-2.14,1.81-.66,2.41,6.06,2.48,11.74,6.99,16.04,11.89,2.16,2.45,3.95,5.21,5.32,8.17.66,1.43,1.17,2.91,1.65,4.41.51,1.57,1.16,3.14,1.14,4.81s2.48,1.61,2.5,0h0Z"/>
    <path class="cls-1" d="M6.23,16.24c.16-.88-.25-1.7-.61-2.47-.41-.89-.69-1.85-1.03-2.78s-.6-1.92-.99-2.84-.96-1.67-1.26-2.58l-.15.64c.68-.47,1.58-.7,2.32-1.05.88-.41,1.76-.84,2.62-1.3.65-.35,1.27-.73,1.87-1.15.52-.36,1.09-.82,1.73-.89l-1.75-1.2c-.02,1.17-.83,2.21-1.41,3.16-.66,1.09-1.18,2.28-1.63,3.47s-.78,2.53-1.27,3.76-.96,2.46-1,3.8l2.38.59c-.14-1.93-.2-3.87-.13-5.8.05-1.42-.16-3.22.98-4.27.89-.82-1.22-2.13-2.01-1.4-1.29,1.2-1.24,2.86-1.32,4.5-.1,2.13-.05,4.26.1,6.39.07,1.01,2.34,1.85,2.38.59.04-1.37.6-2.57,1.08-3.83s.79-2.56,1.29-3.81c.47-1.16,1.01-2.27,1.66-3.33.61-.99,1.26-2.03,1.28-3.23.01-.83-1.06-1.27-1.75-1.2-1.52.16-2.79,1.49-4.1,2.19-.9.48-1.82.92-2.75,1.35-.87.41-1.79.7-2.59,1.25-.18.12-.21.45-.15.64.28.85.77,1.59,1.16,2.38.43.87.67,1.86,1,2.78s.62,1.87,1,2.77c.31.73.82,1.46.67,2.28-.19,1.03,2.16,1.82,2.38.59h0Z"/>
    <path class="cls-1" d="M4.64,7.4c.02-.33.13-.65.14-.98,0-.5-.21-.96-.5-1.35-.21-.28-.59-.73-.99-.68-.34.04-.59.45-.78.7-.11.15-.22.3-.33.45-.05.06-.09.13-.14.19-.03.05-.16.2-.02.03-.32.37,0,1,.23,1.34.19.28.71.98,1.13.75.6-.33,1.21-.65,1.88-.85.16-.05.14-.42.12-.51-.05-.24-.15-.47-.27-.68-.2-.35-.6-.94-1.07-.94-.03,0-.26-.03-.15,0-.09-.02-.19-.05-.28-.09-.17-.06-.33-.13-.5-.19-.38-.13-.77-.22-1.16-.06-.16.06-.14.4-.12.51.28,1.55,1.76,2.69,3.24,3.03.58.13,1.22.2,1.72-.21.25-.21.44-.5.62-.78.2-.31.39-.6.53-.94.32-.77.45-1.61.94-2.3.11-.15,0-.52-.05-.66-.09-.25-.22-.49-.38-.7s-.7-.87-1.03-.62c-.95.7-1.56,1.74-2.46,2.49-.37.31.03,1.05.23,1.34.17.24.36.5.62.65.13.08.37.22.52.1.9-.75,1.51-1.79,2.46-2.49l-1.46-1.98c-.46.65-.61,1.44-.89,2.18-.15.38-.36.72-.58,1.06-.17.26-.32.5-.6.67-.22.13-.47.13-.73.11-.06,0-.12-.02-.17-.02.15.02-.1-.02-.13-.03-.14-.04-.28-.08-.41-.13s-.27-.11-.41-.17c-.09-.04-.08-.04.02.01-.04-.02-.08-.04-.12-.07-.06-.03-.11-.07-.17-.11-.16-.11-.03-.07,0,.01-.03-.03-.06-.05-.09-.08-.09-.09-.06-.05.09.1-.15-.17.19.28.07.1.08.12.15.25.2.39.04.18.05.22.03.12l-.12.51c-.07.03.11-.01.15-.01,0,0,.2.03.09,0,.17.03.33.1.5.16.34.13.7.27,1.07.27l-1.22-2.13c-.66.19-1.27.52-1.88.85l1.37,2.09c.22-.25.4-.54.61-.81.05-.07.11-.14.17-.21-.06.07.02-.02.03-.03.03-.03.06-.06.09-.09.05-.05.11-.09.16-.14,0,0,.05-.03.05-.03,0,.06-.15.01-.06.03l-.37-.14h.02c-.14-.12-.28-.25-.42-.38l.02.02-.36-.56c-.1-.16-.16-.34-.16-.52,0-.09,0-.09,0-.02,0,.03,0,.07,0,.1-.01.11-.03.22-.05.32-.03.17-.07.34-.08.51-.04.55.38,1.19.77,1.54.25.22.82.54.86-.03h0Z"/>
  </g>
</svg>