<?xml version="1.0" encoding="UTF-8"?>
<svg id="Layer_2" data-name="Layer 2" xmlns="http://www.w3.org/2000/svg" viewBox="0 0 34.5 40.33">
  <defs>
    <style>
      .cls-1 {
        fill: #d22229;
      }
    </style>
  </defs>
  <g id="Layer_2-2" data-name="Layer 2">
    <path class="cls-1" d="M2.5,39.12c-.02-1.61.58-3.12,1.08-4.63s1.03-3.1,1.72-4.6c1.37-2.97,3.17-5.72,5.32-8.17,4.3-4.89,9.98-9.4,16.04-11.89,1.47-.6.83-3.02-.66-2.41-6.59,2.7-12.8,7.46-17.43,12.86-2.26,2.64-4.18,5.56-5.6,8.73-.73,1.63-1.3,3.31-1.86,5S-.02,37.34,0,39.12c.02,1.61,2.52,1.61,2.5,0h0Z"/>
    <path class="cls-1" d="M30.62,16.01c-.13-.75.5-1.59.77-2.25.35-.89.64-1.81.96-2.71s.55-1.82.95-2.66c.38-.8.88-1.52,1.16-2.36.15-.45-.14-.87-.5-1.11-.82-.56-1.79-.86-2.68-1.28-.97-.45-1.93-.91-2.87-1.42C26.95,1.43,25.75.18,24.05,0c-.37-.04-.92.17-.91.62.02,1.21.63,2.28,1.25,3.28.65,1.06,1.21,2.14,1.67,3.29.5,1.25.81,2.56,1.29,3.81s1.06,2.46,1.1,3.82c.03,1.03,2.29,1.84,2.38.59.15-2.18.21-4.35.1-6.53-.09-1.72-.09-3.38-1.45-4.64-.41-.38-1.13-.71-1.68-.43-.51.26-.44.87-.06,1.23,1.05.97.81,2.83.85,4.13.06,1.89,0,3.77-.13,5.65l2.38.59c-.04-1.36-.49-2.57-.98-3.82s-.8-2.52-1.27-3.76-.98-2.42-1.63-3.53c-.55-.94-1.41-1.96-1.42-3.1l-.91.62c.45.05,1,.59,1.35.83.64.45,1.31.83,2.01,1.19.78.41,1.58.8,2.37,1.17.75.35,1.67.6,2.36,1.07l-.5-1.11c-.3.92-.88,1.7-1.26,2.58-.41.96-.69,1.99-1.04,2.98-.33.93-.62,1.88-1.04,2.77-.39.84-.71,1.62-.54,2.56.18,1.03,2.56,1.48,2.31.12h0Z"/>
    <path class="cls-1" d="M31.49,7.19c-.02-.26-.08-.52-.12-.77-.03-.19,0,.18,0,.01,0-.18,0,.05-.08.1-.12.08-.28-.02-.39-.08.12.08-.24-.21-.06-.04.14.13-.21-.25-.05-.05.04.05.09.1.13.16.05.06.1.13.15.19-.06-.08-.19-.26-.06-.08.18.25.35.51.55.74l.09-1.51c-.67-.36-1.34-.74-2.08-.95l.9,2.14c.36,0,.71-.15,1.04-.27.14-.05.29-.11.42-.14.06-.01.13-.02.2-.02.04,0,.08,0,.12,0-.08-.02-.08-.01,0,.01l-1.18-1.81c.03-.19-.01,0-.03.05s-.05.09-.08.13c-.04.05-.04.06,0,.01-.03.03-.05.06-.08.08-.04.04-.09.08-.13.12-.24.2-.51.35-.79.47-.42.19-1.03.4-1.46.3-.04,0-.07-.02-.11-.04-.09-.04-.09-.04,0,0-.09-.06-.08-.05.04.04l-.05-.05c.13.14.15.16.07.06-.08-.11-.06-.08.07.09-.04-.06-.09-.13-.13-.19-.09-.14-.27-.32-.31-.48.09.16.1.17.04.05-.02-.04-.04-.08-.06-.12-.04-.08-.03-.05.03.07-.02-.05-.04-.11-.06-.17-.34-.92-.57-1.85-1.14-2.66l-.28,1.24c.23.17-.08-.08.04.03.05.05.11.1.17.15.07.06.29.22.32.31-.02-.05-.14-.15-.03-.03.05.05.1.11.15.16.1.11.19.22.29.33.41.48.83.97,1.32,1.38.24.2.84.55.86-.03.02-.54-.37-1.2-.77-1.54-.11-.09-.22-.19-.32-.29,0,0-.19-.18-.18-.18,0,0,.16.18.03.03-.2-.23-.4-.46-.6-.69-.48-.56-.99-1.08-1.59-1.52-.22-.17-.55-.22-.63.1-.09.36.15.86.35,1.14.03.05.07.1.1.14.07.12.06.1-.04-.06-.03,0,.28.43.06.11.12.18.16.46.23.66.17.52.34,1.04.59,1.52.27.52.61,1.04.98,1.5.33.42.79.86,1.32,1.01.7.2,1.46-.02,2.1-.31s1.25-.73,1.38-1.46c.06-.34-.2-.78-.37-1.05-.2-.3-.47-.62-.81-.76-.76-.3-1.4.35-2.12.35-.46,0-.22.75-.13.95.18.43.56,1.05,1.04,1.19.62.18,1.18.47,1.68.74.26.14.64.23.65-.19.02-.47-.27-.98-.57-1.32-.04-.05-.15-.19,0,.02.17.23,0,0-.03-.05-.16-.22-.32-.44-.49-.66-.28-.37-.59-.75-.98-1-.17-.11-.45-.25-.65-.12-.16.11-.18.35-.18.53,0,.39.13.77.15,1.16.02.27.21.61.35.83.15.23.37.51.62.65.14.09.35.21.52.1s.13-.35.12-.51h0Z"/>
  </g>
</svg>