<?xml version="1.0" encoding="UTF-8"?>
<svg id="Layer_2" data-name="Layer 2" xmlns="http://www.w3.org/2000/svg" viewBox="0 0 217.66 9.39">
  <defs>
    <style>
      .cls-1 {
        fill: #d22229;
      }

      .cls-2 {
        fill: none;
        stroke: #d22229;
        stroke-miterlimit: 10;
        stroke-width: 5px;
      }
    </style>
  </defs>
  <g id="Layer_2-2" data-name="Layer 2">
    <g>
      <path class="cls-2" d="M3.28,6.88C73.17,2.23,143.3,1.28,213.29,4.03"/>
      <path class="cls-1" d="M3.46,9.38c3.22,0,3.22-5,0-5s-3.22,5,0,5h0Z"/>
      <path class="cls-1" d="M213.24,6.54c3.22,0,3.22-5,0-5s-3.22,5,0,5h0Z"/>
      <path class="cls-1" d="M215.01,5.65c.62-.36,1.22-.8,1.71-1.32s.9-1.15.94-1.91c0-.18-.45-.23-.52-.23-.36-.02-.72.04-1.06.13-.31.08.38-.06.15-.03-.31.04.33-.02.11-.01-.07,0-.14,0-.21,0,.23,0,.28,0,.16,0-.04,0-.07,0-.11,0-.13,0-.25-.02-.38-.04-.1-.01-.07,0,.09.01-.04,0-.07-.01-.11-.02-.07-.01-.15-.03-.22-.04-.54-.12-1.06-.29-1.57-.49-.25-.1-.68-.04-.93,0-.32.06-.64.15-.94.28-.25.11-1.02.45-.68.81.04.04.07.08.1.12l-.09-.12c.15.22.24.48.38.71.12.19.31.22.52.23.34.03.74-.04,1.06-.13s.7-.21.99-.42c.1-.07.43-.3.33-.46-.2-.32-.31-.67-.57-.95l-2.55,1.09c.58.23,1.17.42,1.79.54.98.18,1.96.16,2.93-.1l-1.58-.1s0,.09,0,.13l.02-.14c-.05.4-.23.76-.46,1.08l.11-.16c-.25.33-.55.6-.86.88.26-.23,0,0-.07.05s-.15.11-.23.16c-.16.11-.32.21-.48.3-.12.07-.38.28-.33.46s.38.23.52.23c.71.04,1.44-.19,2.05-.55h0Z"/>
      <path class="cls-1" d="M3.97,7.85c-.06,0-.22.02.04,0s.12,0,.06,0c-.03,0-.06,0-.09,0-.13,0,.28.03.14.01-.11-.01-.21-.03-.31-.06l.17.05c-.27-.08-.5-.23-.68-.44l.08.09c-.41-.46-.56-1.13-.44-1.73l-.02.12c.05-.25.16-.48.33-.67l-.12.13s.06-.06.09-.09c.02-.02.04-.03.06-.05.09-.08-.25.15-.14.1.02-.01.04-.02.06-.04-.36.22-.31.15-.21.11.15-.07-.43.16-.25.1-.35.1-.46.14-.33.1.08-.02.03,0-.16.04-.2.05-.38.07-.52.08-.26.02-.13,0-.07,0,.16,0-.24-.03-.14-.01.12.02.24.04.36.07l-.17-.05c.14.05.28.11.42.18.2.1.52.07.73.05.37-.04.77-.13,1.13-.26.27-.1.6-.2.82-.41.09-.08.25-.24.07-.34-.28-.14-.58-.26-.89-.3-.61-.08-1.22.02-1.8.18-.41.11-.82.26-1.19.47-.14.08-.28.17-.4.28-.17.15-.32.33-.41.54-.36.8-.16,1.77.46,2.37.53.51,1.35.54,2.04.46.38-.04.77-.13,1.13-.26.25-.09.62-.22.82-.41.09-.09.24-.23.07-.34-.2-.12-.52-.07-.73-.05h0Z"/>
      <path class="cls-1" d="M1.89,8.89c.12.01.25.04.37.07l1.84-1.07c-.05,0-.1,0-.15.01l.31-.02c-.09,0-.18,0-.27,0l.25.02c-.06,0-.12-.01-.18-.02-.29-.05-.63,0-.91.05-.32.06-.63.15-.94.27-.11.04-.21.08-.31.14-.12.06-.24.13-.34.21-.07.07-.26.27-.06.34.15.05.28.13.42.2.18.09.37.17.57.23.3.1.63.08.94.06s.64-.09.94-.17c.31-.08.64-.19.93-.33.14-.05.26-.12.38-.21.09-.05.16-.12.22-.2.05-.07.04-.12-.02-.16-.05-.07-.12-.1-.21-.1-.3-.05-.62,0-.91.05-.37.07-.76.17-1.11.34-.03.01-.05.02-.08.04.29-.11.38-.15.26-.1.34-.1.44-.13.32-.1-.12.03-.02,0,.33-.07-.08.01-.03,0,.13-.02.16-.02.21-.03.13-.02-.02,0-.03,0-.05,0l.31-.02s-.08,0-.11,0l.25.02c-.09,0-.18-.03-.26-.05l.17.06c-.28-.1-.54-.26-.82-.37l-2.57,1.01c.38.07.78.06,1.16.02.32-.03.63-.11.94-.2.27-.08.56-.18.8-.33l.21-.14.12-.13c.05-.07.04-.12-.02-.16-.05-.07-.12-.1-.21-.1-.12-.04-.24-.06-.37-.07-.31-.04-.61,0-.91.05-.37.07-.77.18-1.11.34l-.28.14c-.13.07-.24.16-.33.27l-.02.12c.05.09.14.14.25.15h0Z"/>
      <path class="cls-1" d="M3.55,4.85c-.1-.04-.22-.08-.33-.11-.02,0-.05-.01-.07-.02l.27.09s-.02,0-.02,0l-.24,1.18s.05-.03.08-.04l-.33.17c.06-.03.11-.05.17-.07l-.38.13s.05-.02.07-.02c.19-.05.37-.12.54-.22.16-.07.3-.16.42-.28.11-.09.19-.2.23-.33.06-.1.08-.21.05-.33l-.11-.19c-.13-.12-.28-.2-.46-.24l-.33-.04c-.26,0-.51.02-.76.09-.01,0-.03,0-.04.01-.14.04-.28.09-.42.14-.03.01-.06.02-.09.04-.01,0-.03.01-.04.02-.12.06-.24.12-.36.19-.03.01-.05.03-.07.04-.14.08-.26.18-.35.31-.1.09-.16.2-.19.33v.22c.05.15.15.26.3.33,0,0,.02,0,.02,0l.27.09s0,0,.01,0c.01,0,.02,0,.04,0,.03,0,.05.01.08.02l-.27-.09h0c.14.07.28.11.43.12.18.03.35.03.53,0,.2-.02.39-.07.58-.14.18-.05.35-.13.51-.23l.26-.2c.14-.12.23-.26.28-.44v-.22c-.05-.15-.15-.26-.3-.33h0Z"/>
      <path class="cls-1" d="M216.4,3.64c.15-.1.27-.23.4-.35l-.2.18s.05-.04.08-.06c.14-.11.3-.25.31-.43.02-.06,0-.11-.04-.15-.04-.09-.12-.15-.23-.17-.73-.32-1.56-.3-2.32-.46-.17-.02-.33-.02-.5,0-.19.01-.38.05-.57.1-.3.09-.58.19-.85.36-.15.09-.4.25-.44.44v.17c.04.12.13.2.26.24.38.11.74.27,1.11.41.18.07.36.12.54.17.37.09.7.12,1.08.13.19,0,.37-.03.56-.08.2-.03.39-.09.58-.17.17-.06.32-.14.47-.23.12-.07.24-.15.33-.26.11-.14.21-.34.03-.48-.21-.17-.51-.16-.76-.16h-.04c.11,0,.21,0,.32.01-.15,0-.29-.03-.43-.06l.26.05c-.58-.13-1.12-.41-1.69-.58l-2.09,1.3c.5.1,1.01.13,1.5.23l-.26-.05c.19.04.38.1.57.18l.04-.75c-.13.1-.25.22-.37.33l.2-.18s-.07.06-.1.08c-.14.09-.37.32-.32.52s.37.27.53.29c.71.07,1.46-.16,2.05-.55h0Z"/>
      <path class="cls-1" d="M216.34,2.19c-.1,0-.2,0-.3-.02-.04,0-.08-.01-.12-.01.05,0,.34.06.13.02-.16-.03-.32-.07-.48-.12-.32-.09-.63-.21-.95-.28-1.1-.26-2.3-.13-3.3.41-.28.15-.6.32-.76.61-.11.2-.15.49.02.67.2.21.51.3.8.31.38.01.8-.04,1.14-.22.09-.05.18-.1.28-.14.28-.12-.36.11-.08.03.05-.01.1-.02.14-.04,0,0-.42.07-.23.04.04,0,.07,0,.11-.01.18-.02-.21,0-.21,0,.07.01.16,0,.23,0,.03,0,.07,0,.1.01.14,0-.31-.06-.18-.03.15.04.3.07.45.11.7.2,1.38.44,2.12.46.39.01.78-.06,1.14-.22.26-.12.63-.34.76-.61.11-.21.16-.48-.02-.67-.2-.21-.51-.31-.8-.31h0Z"/>
      <path class="cls-1" d="M212.58,5.36s0,.04-.01.06c-.02.17-.03.25.1.38.11.11.31.17.46.2.21.04.48.03.69,0,.25-.03.54-.11.77-.21s.4-.19.61-.35c0,0,.02-.02.03-.02l-2.5.36s0,0,0,0l-.1-.16s0,0,0,0v-.19s0,.03-.01.05l.1-.2s-.02.03-.02.04c-.05.07-.08.14-.12.22v.19c.03.11.09.18.19.22.07.05.14.09.23.1.15.05.3.07.45.06l.36-.03.39-.08c.19-.05.37-.11.54-.21.16-.07.3-.15.43-.26.06-.05.13-.09.19-.15.14-.1.23-.23.29-.39.04-.1.02-.19-.04-.27-.04-.1-.12-.17-.24-.2-.19-.07-.38-.1-.58-.1-.12,0-.24,0-.36.03-.07.01-.13.03-.2.04-.2.03-.39.09-.57.17,0,0-.33.16-.33.16,0,0-.26.18-.27.18,0,0,0,0,0,0,0,0-.19.19-.19.2,0,0,0,0,0,0,0,0,0,.01-.01.02-.04.07-.08.15-.12.22-.05.09-.05.16-.04.27l.1.16.19.12.26.07c.17.03.34.03.5.01.13,0,.25-.02.38-.05.13-.02.26-.05.39-.1.12-.03.24-.08.35-.14.16-.07.3-.15.43-.26,0,0,0,0,0,0l.19-.19s0,0,0,0c0,0,0,0,0,0,0,0,.01-.02.02-.02.02-.02.03-.04.05-.06l-.19.19s.01-.01.02-.02l-.27.18s0,0,0,0l-.33.16s0,0,0,0l-.38.13s0,0,0,0l-.39.08h0c-.12,0-.24.02-.36.03,0,0,0,0,0,0l-.32-.02h0c-.15-.25-.29-.49-.44-.74-.02.04-.05.07-.08.11l.19-.19c-.05.05-.11.1-.17.14-.11.08-.19.17-.24.29-.06.08-.08.18-.06.29.03.11.1.18.19.22.1.08.22.12.36.13l.32.02c.26,0,.51-.04.76-.11l.38-.13c.22-.08.41-.2.59-.34.05-.04.1-.07.14-.11s.08-.08.12-.12.09-.08.12-.13c.02-.02.04-.05.05-.08l.1-.2c.04-.1.02-.19-.04-.27-.03-.07-.07-.12-.14-.14-.1-.08-.22-.12-.36-.13,0,0-.32-.03-.32-.03-.06,0,0,0-.18.01-.25.02-.12,0-.38.05-.05,0-.13.02-.2.04-.13.03-.26.07-.38.13-.01,0-.32.15-.33.16,0,0,0,0,0,0-.01,0-.26.18-.27.18,0,0,0,0,0,0,0,0,0,0,0,0-.04.03-.08.08-.1.11-.03.03-.07.07-.1.11-.02.02-.04.05-.07.08l.19-.19s0,0,0,0l2.6-.19s0,0,0,0v.19s0-.03,0-.04c0-.02.02-.03.02-.05l-.1.2s.01-.03.03-.04l-.19.19s0,0,0,0l-.27.18h0c-.11.05-.22.11-.33.16h0c-.26.07-.51.14-.77.21h0c-.12,0-.24.02-.36.03h0c-.19-.32-.38-.64-.57-.96-.06.05-.13.1-.19.15h2.59s0,0,0,0l-.1.2s.01-.02.02-.02c.03-.04.05-.09.07-.14.02-.03.04-.08.06-.12,0,0,0-.01,0-.02.03-.14.02-.27-.1-.37-.13-.11-.28-.17-.45-.19-.23-.03-.46-.03-.68,0-.27.04-.52.11-.77.21-.22.08-.41.2-.59.34,0,.01-.02.02-.03.03l.27-.18s0,0,0,0l.33-.16s0,0,0,0l.38-.13h0c.13-.03.26-.05.39-.08h0c.12,0,.24-.02.36-.03h0c.11,0,.21.02.32.03,0,0,0,0,0,0l.26.07h0c.06.04.13.08.19.12,0,0,0,0,0,0l.1.16s0-.01,0-.02v.19s0-.04,0-.07c.04-.1.02-.19-.04-.27-.04-.1-.12-.17-.24-.2-.14-.06-.28-.08-.42-.09-.17-.02-.35-.02-.52.01l-.39.08c-.25.06-.48.16-.71.29l-.27.18c-.14.1-.23.23-.29.39h0Z"/>
    </g>
  </g>
</svg>